<svg width="176" height="176" viewBox="0 0 176 176" fill="none" xmlns="http://www.w3.org/2000/svg">
<g clip-path="url(#clip0)">
<path d="M0 140.59V36H47.6074C68.9941 36 79.6875 45.3506 79.6875 64.0518C79.6875 76.6982 71.3623 87.1719 54.7119 95.4727L87.8906 140.736H63.4277L31.5674 95.1064V86.2441C50.1221 83.0703 59.3994 75.8682 59.3994 64.6377C59.3994 56.9229 55.0537 53.0654 46.3623 53.0654H19.7754V140.59H0Z" fill="#19B38C"/>
<path d="M97.1191 140.736V36H143.994C165.381 36 176.074 45.8389 176.074 65.5166C176.074 86.8545 161.45 99.7695 132.202 104.262L129.419 86.9766C146.997 83.8027 155.786 76.8447 155.786 66.1025C155.786 57.4111 151.44 53.0654 142.749 53.0654H116.528V140.736H97.1191Z" fill="#19B38C"/>
</g>
<defs>
<clipPath id="clip0">
<rect width="176" height="176" fill="white"/>
</clipPath>
</defs>
</svg>
